<?xml version="1.0" encoding="UTF-8" ?>
<!DOCTYPE svg PUBLIC "-//W3C//DTD SVG 1.1//EN" "http://www.w3.org/Graphics/SVG/1.1/DTD/svg11.dtd">
<svg width="221pt" height="134pt" viewBox="0 0 221 134" version="1.1" xmlns="http://www.w3.org/2000/svg">
<path fill="#ffffff" d=" M 0.00 0.00 L 95.45 0.00 C 93.97 2.56 91.49 4.52 90.59 7.42 C 89.34 10.98 90.08 14.88 91.63 18.22 C 82.69 11.95 70.66 15.97 61.30 10.76 C 59.21 9.69 58.36 7.41 57.32 5.47 C 55.34 8.26 53.17 11.39 53.77 15.02 C 54.57 21.26 59.58 25.74 64.29 29.38 C 60.44 31.53 56.68 33.90 52.46 35.25 C 51.48 35.99 50.50 36.74 49.50 37.47 C 44.15 38.38 38.87 40.24 33.36 39.60 C 36.16 44.33 40.41 48.03 45.14 50.73 C 36.22 50.79 26.92 53.19 20.23 59.35 C 16.01 62.96 13.16 67.83 10.95 72.87 C 16.08 68.65 22.82 67.41 29.29 67.38 C 21.13 75.86 14.81 86.16 12.07 97.68 C 5.94 108.61 1.85 120.71 0.80 133.24 C 73.98 133.26 147.15 133.27 220.33 133.24 C 219.04 116.89 212.28 101.48 202.91 88.19 C 202.25 82.34 198.88 77.39 195.36 72.87 C 199.19 72.93 202.93 73.82 206.51 75.13 C 203.51 67.21 196.71 61.48 189.07 58.22 C 190.77 53.83 196.78 53.97 200.80 54.49 C 195.33 47.78 186.66 45.17 178.36 44.36 C 180.27 40.09 184.80 38.35 189.22 38.24 C 186.14 35.19 182.63 32.58 178.49 31.17 C 178.01 31.07 177.06 30.86 176.58 30.76 C 167.81 28.10 158.58 31.94 150.67 35.70 C 150.06 31.04 148.51 26.30 145.10 22.92 C 139.29 16.88 131.08 14.31 123.46 11.39 C 118.87 9.55 113.38 6.48 113.62 0.74 C 111.59 2.33 109.25 3.86 108.34 6.41 C 107.10 9.26 107.69 12.40 108.08 15.35 C 104.43 13.83 100.59 12.11 98.18 8.82 C 96.23 6.33 95.75 3.08 95.70 0.00 L 221.00 0.00 L 221.00 134.00 L 0.00 134.00 L 0.00 0.00 Z" />
<path fill="#000000" d=" M 95.45 0.00 L 95.70 0.00 C 95.75 3.08 96.23 6.33 98.18 8.82 C 100.59 12.11 104.43 13.83 108.08 15.35 C 107.69 12.40 107.10 9.26 108.34 6.41 C 109.25 3.86 111.59 2.33 113.62 0.74 C 113.38 6.48 118.87 9.55 123.46 11.39 C 131.08 14.31 139.29 16.88 145.10 22.92 C 148.51 26.30 150.06 31.04 150.67 35.70 C 158.58 31.94 167.81 28.10 176.58 30.76 C 177.06 30.86 178.01 31.07 178.49 31.17 C 182.63 32.58 186.14 35.19 189.22 38.24 C 184.80 38.35 180.27 40.09 178.36 44.36 C 186.66 45.17 195.33 47.78 200.80 54.49 C 196.78 53.97 190.77 53.83 189.07 58.22 C 196.71 61.48 203.51 67.21 206.51 75.13 C 202.93 73.82 199.19 72.93 195.36 72.87 C 198.88 77.39 202.25 82.34 202.91 88.19 C 196.68 80.05 187.83 74.19 178.22 70.80 C 170.49 67.71 161.93 67.23 154.42 63.58 C 150.29 61.70 148.83 57.07 148.56 52.88 C 136.55 58.34 124.15 63.01 111.43 66.51 C 102.80 68.76 93.88 70.68 84.92 69.92 C 81.81 69.60 78.60 68.88 75.99 67.10 C 73.23 64.69 72.71 60.87 72.54 57.42 C 54.94 58.08 39.79 68.74 27.34 80.33 C 21.79 85.68 16.64 91.47 12.07 97.68 C 14.81 86.16 21.13 75.86 29.29 67.38 C 22.82 67.41 16.08 68.65 10.95 72.87 C 13.16 67.83 16.01 62.96 20.23 59.35 C 26.92 53.19 36.22 50.79 45.14 50.73 C 40.41 48.03 36.16 44.33 33.36 39.60 C 38.87 40.24 44.15 38.38 49.50 37.47 C 50.50 36.74 51.48 35.99 52.46 35.25 C 56.68 33.90 60.44 31.53 64.29 29.38 C 59.58 25.74 54.57 21.26 53.77 15.02 C 53.17 11.39 55.34 8.26 57.32 5.47 C 58.36 7.41 59.21 9.69 61.30 10.76 C 70.66 15.97 82.69 11.95 91.63 18.22 C 90.08 14.88 89.34 10.98 90.59 7.42 C 91.49 4.52 93.97 2.56 95.45 0.00 Z" />
<path fill="#d3a76e" d=" M 111.43 66.51 C 124.15 63.01 136.55 58.34 148.56 52.88 C 148.83 57.07 150.29 61.70 154.42 63.58 C 161.93 67.23 170.49 67.71 178.22 70.80 C 187.83 74.19 196.68 80.05 202.91 88.19 C 212.28 101.48 219.04 116.89 220.33 133.24 C 147.15 133.27 73.98 133.26 0.80 133.24 C 1.85 120.71 5.94 108.61 12.07 97.68 C 16.64 91.47 21.79 85.68 27.34 80.33 C 39.79 68.74 54.94 58.08 72.54 57.42 C 72.71 60.87 73.23 64.69 75.99 67.10 C 78.60 68.88 81.81 69.60 84.92 69.92 C 93.88 70.68 102.80 68.76 111.43 66.51 Z" />
<path fill="#ffffff" d=" M 60.35 79.37 C 64.21 78.65 68.78 78.35 72.00 81.05 C 76.91 84.56 78.33 92.00 75.02 97.06 C 71.47 103.19 62.23 104.86 56.95 100.01 C 50.09 94.66 51.99 82.19 60.35 79.37 Z" />
<path fill="#ffffff" d=" M 153.19 79.02 C 155.73 78.40 158.43 78.59 161.02 78.83 C 164.71 80.21 167.78 83.28 169.17 86.96 C 169.53 90.74 169.87 95.03 167.16 98.08 C 162.80 104.43 152.18 104.60 147.63 98.38 C 142.46 92.18 145.39 81.51 153.19 79.02 Z" />
<path fill="#796448" d=" M 13.23 101.41 C 16.56 101.78 11.48 104.26 13.23 101.41 Z" />
<path fill="#796448" d=" M 200.18 103.40 C 203.51 103.57 198.61 106.37 200.18 103.40 Z" />
<path fill="#796448" d=" M 28.05 106.39 C 31.38 106.67 26.38 109.29 28.05 106.39 Z" />
<path fill="#796448" d=" M 191.98 106.43 C 195.32 106.41 190.58 109.47 191.98 106.43 Z" />
<path fill="#796448" d=" M 8.18 107.98 C 11.23 106.59 8.15 111.32 8.18 107.98 Z" />
<path fill="#796448" d=" M 35.15 108.42 C 38.49 108.46 33.69 111.43 35.15 108.42 Z" />
<path fill="#796448" d=" M 211.20 107.95 C 214.29 106.65 211.07 111.29 211.20 107.95 Z" />
<path fill="#796448" d=" M 16.20 109.26 C 16.70 109.75 16.70 109.75 16.20 109.26 Z" />
<path fill="#796448" d=" M 21.97 109.09 C 25.31 109.30 20.36 112.02 21.97 109.09 Z" />
<path fill="#796448" d=" M 198.06 109.07 C 201.38 109.38 196.37 111.96 198.06 109.07 Z" />
<path fill="#796448" d=" M 204.24 109.32 C 204.75 109.79 204.75 109.79 204.24 109.32 Z" />
<path fill="#796448" d=" M 27.95 111.28 C 31.28 111.38 26.46 114.30 27.95 111.28 Z" />
<path fill="#796448" d=" M 49.05 111.32 C 52.38 111.49 47.49 114.29 49.05 111.32 Z" />
<path fill="#796448" d=" M 170.90 111.36 C 174.25 111.11 169.71 114.48 170.90 111.36 Z" />
<path fill="#796448" d=" M 191.98 111.32 C 195.29 111.49 190.44 114.32 191.98 111.32 Z" />
<path fill="#796448" d=" M 56.20 112.13 C 59.28 110.80 56.10 115.46 56.20 112.13 Z" />
<path fill="#796448" d=" M 163.13 112.22 C 166.00 110.49 163.49 115.54 163.13 112.22 Z" />
<path fill="#796448" d=" M 65.23 113.20 C 68.57 113.47 63.59 116.11 65.23 113.20 Z" />
<path fill="#796448" d=" M 36.29 114.29 C 36.77 114.80 36.77 114.80 36.29 114.29 Z" />
<path fill="#796448" d=" M 75.28 114.33 C 75.77 114.82 75.77 114.82 75.28 114.33 Z" />
<path fill="#796448" d=" M 85.22 114.47 C 88.56 114.65 83.63 117.41 85.22 114.47 Z" />
<path fill="#796448" d=" M 144.40 114.17 C 147.31 112.52 144.68 117.50 144.40 114.17 Z" />
<path fill="#796448" d=" M 184.26 114.23 C 184.75 114.75 184.75 114.75 184.26 114.23 Z" />
<path fill="#796448" d=" M 17.43 115.08 C 20.46 113.59 17.54 118.39 17.43 115.08 Z" />
<path fill="#796448" d=" M 97.21 115.09 C 100.56 115.25 95.65 118.05 97.21 115.09 Z" />
<path fill="#796448" d=" M 110.01 115.08 C 113.35 115.40 108.30 117.95 110.01 115.08 Z" />
<path fill="#796448" d=" M 134.33 114.93 C 137.22 113.28 134.58 118.29 134.33 114.93 Z" />
<path fill="#796448" d=" M 177.93 115.61 C 179.34 115.20 179.81 115.69 179.35 117.08 C 177.93 117.49 177.46 117.00 177.93 115.61 Z" />
<path fill="#796448" d=" M 201.94 115.12 C 204.86 113.46 202.21 118.45 201.94 115.12 Z" />
<path fill="#796448" d=" M 24.08 115.99 C 27.08 114.46 24.23 119.31 24.08 115.99 Z" />
<path fill="#796448" d=" M 31.07 116.11 C 34.39 116.30 29.52 119.10 31.07 116.11 Z" />
<path fill="#796448" d=" M 41.48 115.99 C 44.50 114.49 41.57 119.31 41.48 115.99 Z" />
<path fill="#796448" d=" M 48.27 116.00 C 49.91 115.53 50.46 116.10 49.94 117.71 C 48.31 118.18 47.75 117.61 48.27 116.00 Z" />
<path fill="#796448" d=" M 161.05 116.58 C 162.46 116.14 162.93 116.62 162.46 118.02 C 161.05 118.46 160.58 117.98 161.05 116.58 Z" />
<path fill="#796448" d=" M 171.00 116.16 C 172.39 115.67 172.86 116.13 172.41 117.55 C 171.01 118.04 170.54 117.58 171.00 116.16 Z" />
<path fill="#796448" d=" M 188.41 116.02 C 190.03 115.56 190.57 116.14 190.02 117.77 C 188.40 118.23 187.86 117.64 188.41 116.02 Z" />
<path fill="#796448" d=" M 195.20 115.96 C 198.27 114.56 195.20 119.28 195.20 115.96 Z" />
<path fill="#796448" d=" M 6.16 117.39 C 7.80 116.85 8.38 117.38 7.89 118.98 C 6.24 119.53 5.66 118.99 6.16 117.39 Z" />
<path fill="#796448" d=" M 58.35 116.93 C 61.43 115.56 58.33 120.25 58.35 116.93 Z" />
<path fill="#796448" d=" M 69.35 117.33 C 70.98 116.79 71.52 117.34 70.97 118.97 C 69.34 119.51 68.80 118.96 69.35 117.33 Z" />
<path fill="#796448" d=" M 91.27 117.16 C 92.63 117.76 92.67 118.43 91.40 119.17 C 90.04 118.57 90.00 117.90 91.27 117.16 Z" />
<path fill="#796448" d=" M 129.33 117.17 C 130.61 117.88 130.59 118.55 129.24 119.18 C 127.96 118.47 127.98 117.80 129.33 117.17 Z" />
<path fill="#796448" d=" M 150.16 117.51 C 153.50 117.66 148.63 120.49 150.16 117.51 Z" />
<path fill="#796448" d=" M 213.02 117.47 C 214.41 116.98 214.89 117.44 214.47 118.85 C 213.06 119.34 212.58 118.88 213.02 117.47 Z" />
<path fill="#796448" d=" M 80.52 117.93 C 81.95 117.55 82.41 118.06 81.89 119.43 C 80.46 119.80 80.01 119.30 80.52 117.93 Z" />
<path fill="#796448" d=" M 104.08 118.43 C 107.39 118.52 102.60 121.47 104.08 118.43 Z" />
<path fill="#796448" d=" M 115.42 118.25 C 117.03 117.73 117.56 118.29 117.01 119.94 C 115.39 120.45 114.86 119.89 115.42 118.25 Z" />
<path fill="#796448" d=" M 138.66 117.92 C 140.07 117.52 140.54 118.01 140.08 119.41 C 138.67 119.81 138.20 119.31 138.66 117.92 Z" />
<path fill="#796448" d=" M 53.01 119.25 C 54.63 118.76 55.18 119.33 54.68 120.96 C 53.06 121.45 52.51 120.88 53.01 119.25 Z" />
<path fill="#796448" d=" M 166.08 119.28 C 167.71 118.78 168.27 119.34 167.76 120.96 C 166.13 121.46 165.56 120.90 166.08 119.28 Z" />
<path fill="#796448" d=" M 14.34 120.30 C 14.82 120.80 14.82 120.80 14.34 120.30 Z" />
<path fill="#796448" d=" M 63.30 120.17 C 66.33 118.71 63.38 123.50 63.30 120.17 Z" />
<path fill="#796448" d=" M 75.59 119.90 C 76.99 119.49 77.47 119.98 77.03 121.38 C 75.63 121.80 75.15 121.30 75.59 119.90 Z" />
<path fill="#796448" d=" M 86.30 120.22 C 87.93 119.76 88.47 120.34 87.91 121.95 C 86.27 122.40 85.73 121.82 86.30 120.22 Z" />
<path fill="#796448" d=" M 97.19 120.19 C 100.19 118.64 97.35 123.51 97.19 120.19 Z" />
<path fill="#796448" d=" M 122.11 120.16 C 125.16 118.73 122.13 123.49 122.11 120.16 Z" />
<path fill="#796448" d=" M 133.20 120.37 C 136.52 120.41 131.74 123.42 133.20 120.37 Z" />
<path fill="#796448" d=" M 143.62 119.91 C 145.02 119.46 145.50 119.95 145.07 121.35 C 143.67 121.79 143.18 121.31 143.62 119.91 Z" />
<path fill="#796448" d=" M 156.05 119.98 C 157.45 119.49 157.93 119.95 157.48 121.36 C 156.07 121.85 155.59 121.39 156.05 119.98 Z" />
<path fill="#796448" d=" M 184.96 120.64 C 186.34 120.19 186.84 120.67 186.43 122.08 C 185.04 122.54 184.55 122.06 184.96 120.64 Z" />
<path fill="#796448" d=" M 205.45 119.92 C 206.84 119.47 207.32 119.95 206.91 121.36 C 205.52 121.81 205.04 121.33 205.45 119.92 Z" />
<path fill="#796448" d=" M 24.09 121.18 C 27.42 121.28 22.61 124.20 24.09 121.18 Z" />
<path fill="#796448" d=" M 34.38 121.02 C 37.40 119.50 34.51 124.35 34.38 121.02 Z" />
<path fill="#796448" d=" M 44.16 121.08 C 45.82 120.58 46.35 121.13 45.78 122.74 C 44.12 123.24 43.59 122.69 44.16 121.08 Z" />
<path fill="#796448" d=" M 109.27 121.08 C 110.90 120.55 111.44 121.11 110.91 122.74 C 109.28 123.26 108.74 122.71 109.27 121.08 Z" />
<path fill="#796448" d=" M 174.96 121.07 C 176.57 120.55 177.11 121.12 176.57 122.77 C 174.96 123.29 174.42 122.72 174.96 121.07 Z" />
<path fill="#796448" d=" M 195.34 121.10 C 196.93 120.54 197.49 121.09 197.03 122.75 C 195.44 123.31 194.88 122.76 195.34 121.10 Z" />
<path fill="#796448" d=" M 8.98 124.12 C 10.61 123.60 11.18 124.16 10.70 125.77 C 9.06 126.28 8.49 125.73 8.98 124.12 Z" />
<path fill="#796448" d=" M 18.16 124.11 C 19.79 123.58 20.35 124.13 19.84 125.76 C 18.21 126.28 17.65 125.73 18.16 124.11 Z" />
<path fill="#796448" d=" M 28.50 124.13 C 29.49 122.60 32.06 124.31 30.83 125.77 C 29.82 127.23 27.35 125.57 28.50 124.13 Z" />
<path fill="#796448" d=" M 38.98 124.12 C 40.59 123.58 41.18 124.12 40.73 125.76 C 39.12 126.29 38.53 125.75 38.98 124.12 Z" />
<path fill="#796448" d=" M 49.24 124.14 C 50.21 122.64 52.78 124.24 51.62 125.72 C 50.65 127.22 48.07 125.62 49.24 124.14 Z" />
<path fill="#796448" d=" M 59.29 124.13 C 60.26 122.64 62.85 124.25 61.69 125.73 C 60.72 127.21 58.16 125.61 59.29 124.13 Z" />
<path fill="#796448" d=" M 70.23 124.10 C 71.85 123.58 72.41 124.14 71.89 125.77 C 70.26 126.28 69.71 125.73 70.23 124.10 Z" />
<path fill="#796448" d=" M 80.36 124.12 C 82.02 123.60 82.58 124.15 82.03 125.75 C 80.37 126.26 79.82 125.71 80.36 124.12 Z" />
<path fill="#796448" d=" M 92.35 124.35 C 93.59 122.99 95.63 125.15 94.32 126.36 C 93.10 127.78 91.00 125.57 92.35 124.35 Z" />
<path fill="#796448" d=" M 116.20 124.34 C 117.91 123.73 118.88 126.64 117.00 127.02 C 115.29 127.57 114.43 124.76 116.20 124.34 Z" />
<path fill="#796448" d=" M 126.41 124.40 C 127.61 123.01 129.80 125.14 128.48 126.39 C 127.28 127.68 125.15 125.66 126.41 124.40 Z" />
<path fill="#796448" d=" M 138.32 124.11 C 139.32 122.63 141.87 124.28 140.68 125.74 C 139.68 127.21 137.14 125.56 138.32 124.11 Z" />
<path fill="#796448" d=" M 148.43 124.10 C 149.45 122.63 152.01 124.32 150.79 125.77 C 149.77 127.20 147.27 125.54 148.43 124.10 Z" />
<path fill="#796448" d=" M 159.33 124.15 C 160.97 123.57 161.53 124.10 161.02 125.72 C 159.37 126.30 158.81 125.77 159.33 124.15 Z" />
<path fill="#796448" d=" M 169.17 124.08 C 170.19 122.65 172.68 124.33 171.54 125.76 C 170.52 127.22 168.00 125.52 169.17 124.08 Z" />
<path fill="#796448" d=" M 180.12 124.10 C 181.75 123.59 182.30 124.15 181.75 125.78 C 180.12 126.28 179.57 125.72 180.12 124.10 Z" />
<path fill="#796448" d=" M 190.19 124.12 C 191.80 123.57 192.36 124.12 191.88 125.77 C 190.26 126.31 189.70 125.76 190.19 124.12 Z" />
<path fill="#796448" d=" M 200.95 124.10 C 202.59 123.59 203.16 124.14 202.65 125.75 C 201.00 126.26 200.44 125.71 200.95 124.10 Z" />
<path fill="#796448" d=" M 210.15 124.10 C 211.77 123.58 212.31 124.14 211.78 125.78 C 210.15 126.29 209.61 125.73 210.15 124.10 Z" />
<path fill="#796448" d=" M 103.29 124.94 C 104.91 124.44 105.44 125.01 104.87 126.65 C 103.25 127.15 102.72 126.58 103.29 124.94 Z" />
<path fill="#796448" d=" M 13.16 128.38 C 14.99 127.75 15.98 130.87 14.01 131.29 C 12.13 131.91 11.22 128.82 13.16 128.38 Z" />
<path fill="#796448" d=" M 22.84 131.10 C 22.57 129.71 23.73 127.61 25.23 128.78 C 26.80 129.23 25.32 131.01 24.97 131.86 C 24.44 131.67 23.37 131.29 22.84 131.10 Z" />
<path fill="#796448" d=" M 55.13 128.29 C 56.93 127.79 57.83 130.89 55.92 131.31 C 54.00 131.88 53.25 128.74 55.13 128.29 Z" />
<path fill="#796448" d=" M 86.08 128.35 C 87.88 127.83 88.76 130.80 86.89 131.27 C 84.95 132.00 84.08 128.72 86.08 128.35 Z" />
<path fill="#796448" d=" M 134.12 128.34 C 135.93 127.87 136.61 130.82 134.83 131.28 C 132.80 132.05 132.09 128.66 134.12 128.34 Z" />
<path fill="#796448" d=" M 144.12 128.31 C 145.91 127.79 146.84 130.87 144.94 131.31 C 143.03 131.90 142.24 128.76 144.12 128.31 Z" />
<path fill="#796448" d=" M 196.33 128.47 C 198.09 128.11 198.68 131.43 196.72 131.56 C 194.63 132.26 194.05 128.40 196.33 128.47 Z" />
<path fill="#796448" d=" M 4.22 129.00 C 6.01 128.31 6.87 131.42 4.97 131.73 C 3.32 132.15 2.55 129.47 4.22 129.00 Z" />
<path fill="#796448" d=" M 33.99 128.93 C 35.51 127.91 36.37 129.71 36.92 130.80 C 35.98 131.21 35.05 131.62 34.11 132.04 C 33.65 131.01 32.80 129.85 33.99 128.93 Z" />
<path fill="#796448" d=" M 44.17 129.09 C 45.77 128.54 46.32 129.09 45.82 130.75 C 44.22 131.29 43.67 130.74 44.17 129.09 Z" />
<path fill="#796448" d=" M 64.49 129.10 C 65.50 127.55 67.98 129.36 66.83 130.80 C 65.80 132.27 63.40 130.52 64.49 129.10 Z" />
<path fill="#796448" d=" M 75.15 129.04 C 76.18 127.58 78.60 129.35 77.45 130.75 C 76.41 132.25 73.93 130.47 75.15 129.04 Z" />
<path fill="#796448" d=" M 97.10 129.06 C 98.72 128.56 99.27 129.13 98.77 130.77 C 97.16 131.26 96.60 130.69 97.10 129.06 Z" />
<path fill="#796448" d=" M 109.37 129.14 C 110.72 127.63 113.01 130.06 111.47 131.35 C 110.12 132.79 108.01 130.44 109.37 129.14 Z" />
<path fill="#796448" d=" M 121.57 129.10 C 122.58 127.54 125.09 129.34 123.86 130.78 C 122.83 132.24 120.41 130.51 121.57 129.10 Z" />
<path fill="#796448" d=" M 154.25 129.07 C 155.87 128.57 156.40 129.14 155.83 130.78 C 154.20 131.27 153.67 130.70 154.25 129.07 Z" />
<path fill="#796448" d=" M 164.16 129.08 C 165.14 127.53 167.59 129.28 166.46 130.71 C 165.47 132.28 162.96 130.54 164.16 129.08 Z" />
<path fill="#796448" d=" M 174.54 129.08 C 175.56 127.52 178.03 129.36 176.82 130.79 C 175.78 132.25 173.37 130.49 174.54 129.08 Z" />
<path fill="#796448" d=" M 184.32 129.27 C 184.71 129.13 185.48 128.85 185.87 128.70 C 188.00 128.16 187.57 131.88 186.06 131.72 C 184.72 131.93 183.60 130.51 184.32 129.27 Z" />
<path fill="#796448" d=" M 206.33 129.08 C 207.98 128.57 208.52 129.12 207.95 130.74 C 206.30 131.24 205.76 130.69 206.33 129.08 Z" />
<path fill="#796448" d=" M 215.21 129.15 C 216.70 127.96 218.31 130.57 216.79 131.53 C 215.31 132.66 213.72 130.12 215.21 129.15 Z" />
</svg>
